<?xml version="1.0" encoding="UTF-8"?>
<!DOCTYPE svg PUBLIC "-//W3C//DTD SVG 1.1//EN" "http://www.w3.org/Graphics/SVG/1.1/DTD/svg11.dtd">
<!-- Creator: CorelDRAW -->
<svg xmlns="http://www.w3.org/2000/svg" xml:space="preserve" width="2048px" height="2048px" style="shape-rendering:geometricPrecision; text-rendering:geometricPrecision; image-rendering:optimizeQuality; fill-rule:evenodd; clip-rule:evenodd"
viewBox="0 0 2048 2048"
 xmlns:xlink="http://www.w3.org/1999/xlink">
 <defs>
  <style type="text/css">
   <![CDATA[
    .fil1 {fill:none}
    .fil0 {fill:#9E9E9E}
    .fil2 {fill:#FFFFFE}
   ]]>
  </style>
 </defs>
 <g id="Layer_x0020_1">
  <metadata id="CorelCorpID_0Corel-Layer"/>
  <rect class="fil0" width="2048" height="2048" rx="256.001" ry="256.001"/>
  <rect class="fil1" x="255.999" y="255.999" width="1536" height="1536"/>
  <path class="fil2" d="M348.18 319.997l1351.64 0c34.187,0 65.191,13.8319 87.6934,36.2067 22.5496,22.4185 36.4878,53.3339 36.4878,87.4453l0 1160.8c0,34.0725 -13.9441,64.9713 -36.4985,87.3709 -22.5071,22.3536 -53.5063,36.1843 -87.6827,36.1843l-1351.64 0c-34.1717,0 -65.1733,-13.8295 -87.6816,-36.1866 -22.5543,-22.3996 -36.4996,-53.2949 -36.4996,-87.3686l0 -1160.8c0,-34.1103 13.9417,-65.0245 36.489,-87.443 22.5036,-22.376 53.5099,-36.2091 87.6922,-36.2091zm3.81969 1280l0 -960.001 0 -32.0008 32.0008 0 1280 0 32.0008 0 0 32.0008 0 928.001 0 32.0008 -32.0008 0 -1280 0 -32.0008 -0.0011811zm1232.04 -1152c26.4721,0 47.9611,21.5587 47.9611,47.9634 0,26.478 -21.489,48.0367 -47.9611,48.0367 -26.4036,0 -47.9622,-21.5587 -47.9622,-48.0367 0,-26.4047 21.5587,-47.9634 47.9622,-47.9634zm-192 0c26.4721,0 47.9611,21.5587 47.9611,47.9634 0,26.478 -21.489,48.0367 -47.9611,48.0367 -26.4036,0 -47.9622,-21.5587 -47.9622,-48.0367 0,-26.4047 21.5587,-47.9634 47.9622,-47.9634z"/>
  <path class="fil2" d="M1201.65 817.352l22.5721 22.4103 63.5729 63.1193 22.7209 22.5591 -22.7209 22.6914 -44.6339 44.576c4.28977,7.98544 8.18741,16.2154 11.6811,24.6709 3.52559,8.53229 6.62481,17.2311 9.2882,26.0729l63.1985 0 32.0008 0 0 32.0008 0 89.6257 0 32.0008 -32.0008 0 -63.1312 0c-2.61496,8.75906 -5.66811,17.3717 -9.14174,25.813 -3.47835,8.44961 -7.37127,16.6878 -11.6622,24.6862l44.4012 44.367 22.6736 22.6559 -22.6736 22.5945 -63.5729 63.3473 -22.5295 22.448 -22.4705 -22.448 -44.4272 -44.3811c-8.02796,4.33229 -16.3406,8.27599 -24.9059,11.8004 -8.35394,3.43819 -16.9323,6.46182 -25.7055,9.04135l0 62.9965 0 32.0008 -32.0008 0 -89.5784 0 -32.0008 0 0 -32.0008 0 -62.993c-8.76851,-2.57717 -17.3421,-5.59607 -25.6937,-9.03072 -8.54646,-3.51496 -16.8827,-7.48111 -24.9803,-11.8689l-44.6091 44.4355 -22.5461 22.4587 -22.5792 -22.5839 -63.3308 -63.3473 -22.5591 -22.5662 22.5591 -22.5591 44.4107 -44.4118c-4.23071,-7.92757 -8.09292,-16.1327 -11.5736,-24.5894 -3.48189,-8.45788 -6.54095,-17.087 -9.16064,-25.865l-62.9398 0 -32.0008 0 0 -32.0008 0 -89.6257 0 -32.0008 32.0008 0 62.9008 0c2.62795,-8.85001 5.69764,-17.5406 9.19725,-26.0457 3.45355,-8.39646 7.33819,-16.5933 11.6374,-24.5658l-44.4721 -44.6244 -22.5236 -22.6016 22.5236 -22.5236 63.3308 -63.3284 22.6264 -22.624 22.624 22.624 44.4378 44.439c8.01142,-4.29449 16.2662,-8.18977 24.7418,-11.6681 8.49449,-3.48544 17.1614,-6.54686 25.9784,-9.163l0 -63.0674 0 -32.0008 32.0008 0 89.5784 0 32.0008 0 0 32.0008 0 63.0815c8.75788,2.60906 17.3575,5.65512 25.7811,9.12284 8.53701,3.51496 16.8047,7.41969 24.7843,11.6941l44.4733 -44.439 22.428 -22.4103zm-194.184 189.767c31.2083,0 59.4674,12.6532 79.9229,33.1087 20.4555,20.4567 33.1087,48.717 33.1087,79.9241 0,31.2083 -12.6532,59.4674 -33.1087,79.9229 -20.4555,20.4555 -48.7146,33.1087 -79.9229,33.1087 -31.2083,0 -59.4674,-12.6532 -79.9241,-33.1087 -20.4555,-20.4555 -33.1087,-48.7146 -33.1087,-79.9229 0,-31.2071 12.6532,-59.4674 33.1087,-79.9241 20.4567,-20.4555 48.7146,-33.1087 79.9241,-33.1087z"/>
 </g>
</svg>
